<svg width="529" height="115" viewBox="0 0 529 115" fill="none" xmlns="http://www.w3.org/2000/svg">
<g filter="url(#filter0_d_1_211)">
<path d="M9.53888 98.0167C9.53888 98.0167 47.5762 63.7603 69.7255 62.8685C91.8748 61.9767 108.838 93.316 126.291 93.316C143.744 93.316 158.084 26.3786 182.536 26.3786C206.988 26.3786 221.161 53.327 236.912 53.327C252.663 53.327 266.515 26.3786 292.991 26.3786C319.467 26.3786 338.261 62.8685 353.13 62.8685C367.999 62.8685 371.323 29.8874 408.617 29.8874C445.91 29.8874 437.092 0.928162 462.704 0.928162C488.316 0.928162 462.704 41.9822 519.975 52.3279" stroke="#805AD5" stroke-width="1.61669" stroke-linecap="round" stroke-linejoin="round"/>
</g>
<defs>
<filter id="filter0_d_1_211" x="0.647067" y="0.119812" width="528.219" height="114.872" filterUnits="userSpaceOnUse" color-interpolation-filters="sRGB">
<feFlood flood-opacity="0" result="BackgroundImageFix"/>
<feColorMatrix in="SourceAlpha" type="matrix" values="0 0 0 0 0 0 0 0 0 0 0 0 0 0 0 0 0 0 127 0" result="hardAlpha"/>
<feOffset dy="8.08346"/>
<feGaussianBlur stdDeviation="4.04173"/>
<feColorMatrix type="matrix" values="0 0 0 0 0 0 0 0 0 0 0 0 0 0 0 0 0 0 0.2 0"/>
<feBlend mode="normal" in2="BackgroundImageFix" result="effect1_dropShadow_1_211"/>
<feBlend mode="normal" in="SourceGraphic" in2="effect1_dropShadow_1_211" result="shape"/>
</filter>
</defs>
</svg>
