<svg width="15" height="17" viewBox="0 0 15 17" fill="none" xmlns="http://www.w3.org/2000/svg">
<path d="M14.2348 4.52929C14.2363 4.28944 14.1766 4.05318 14.0615 3.84275C13.9464 3.63233 13.7796 3.45466 13.5769 3.32648C13.3742 3.1983 13.1422 3.12382 12.9027 3.11006C12.6633 3.09631 12.4242 3.14372 12.2082 3.24784C12.1939 3.0063 12.1194 2.77218 11.9914 2.56682C11.8635 2.36146 11.6862 2.19139 11.4756 2.07212C11.2651 1.95286 11.0281 1.88818 10.7862 1.884C10.5442 1.87982 10.3051 1.93626 10.0906 2.04818C10.0664 1.70084 9.92172 1.37283 9.68154 1.12076C9.44135 0.868681 9.12071 0.708345 8.77494 0.667413C8.42916 0.62648 8.07995 0.707519 7.78754 0.896547C7.49514 1.08557 7.27788 1.37074 7.17325 1.70283C6.94537 1.56615 6.68465 1.49391 6.41892 1.4938C6.2234 1.49439 6.02992 1.53357 5.84957 1.60908C5.66922 1.68459 5.50554 1.79495 5.36792 1.93384C5.2303 2.07272 5.12145 2.2374 5.04759 2.41844C4.97374 2.59947 4.93634 2.7933 4.93753 2.98882V8.74171C4.35588 8.01464 3.78786 7.29667 3.70153 7.17398C3.57011 6.9653 3.38763 6.7936 3.17134 6.67512C2.95506 6.55664 2.71212 6.4953 2.46552 6.4969C2.25635 6.49058 2.0481 6.52719 1.85363 6.60448C1.65916 6.68177 1.4826 6.7981 1.33484 6.94629C1.18708 7.09448 1.07125 7.27138 0.994522 7.46607C0.91779 7.66076 0.881776 7.86911 0.888702 8.07826C0.9296 8.89621 2.51096 11.7863 3.57429 13.3586C5.18292 15.7397 6.71884 16.085 6.787 16.085H11.5674C11.6579 16.0841 11.7456 16.0538 11.8174 15.9987C12.6334 15.2467 13.2235 14.2821 13.5214 13.2131C13.9758 11.809 14.2167 9.7914 14.2394 7.05129L14.2348 4.52929ZM12.7444 12.9587C12.4892 13.8236 12.0312 14.615 11.4084 15.2671H6.90515C6.69157 15.2035 5.51009 14.7672 4.23774 12.8814C2.96538 10.9956 1.72937 8.48269 1.70665 8.03736C1.70299 7.94224 1.71929 7.8474 1.75451 7.75896C1.78973 7.67052 1.84308 7.59044 1.91113 7.52388C1.97817 7.45488 2.05887 7.40065 2.14808 7.36466C2.23728 7.32866 2.33302 7.31169 2.42917 7.31485C2.54921 7.30786 2.66884 7.33432 2.77474 7.39128C2.88064 7.44824 2.96865 7.53347 3.02899 7.63748C3.16077 7.83288 4.10141 9.00072 4.65125 9.69598L5.75548 8.95074V2.98882C5.74784 2.89616 5.7595 2.80293 5.78972 2.715C5.81994 2.62707 5.86806 2.54637 5.93104 2.47798C5.99403 2.40959 6.07051 2.35501 6.15566 2.31767C6.2408 2.28033 6.33277 2.26105 6.42574 2.26105C6.51871 2.26105 6.61068 2.28033 6.69582 2.31767C6.78097 2.35501 6.85745 2.40959 6.92044 2.47798C6.98342 2.54637 7.03154 2.62707 7.06176 2.715C7.09198 2.80293 7.10364 2.89616 7.096 2.98882V8.051H7.91395V2.14361C7.93329 1.9764 8.01342 1.82212 8.1391 1.71014C8.26478 1.59816 8.42724 1.53628 8.59557 1.53628C8.7639 1.53628 8.92636 1.59816 9.05204 1.71014C9.17772 1.82212 9.25785 1.9764 9.27719 2.14361V8.11007H10.0951V3.36144C10.0876 3.27185 10.0988 3.18167 10.1279 3.0966C10.157 3.01154 10.2035 2.93346 10.2644 2.86728C10.3252 2.8011 10.3992 2.74827 10.4815 2.71213C10.5638 2.676 10.6528 2.65734 10.7427 2.65734C10.8326 2.65734 10.9215 2.676 11.0038 2.71213C11.0862 2.74827 11.1601 2.8011 11.221 2.86728C11.2818 2.93346 11.3283 3.01154 11.3574 3.0966C11.3866 3.18167 11.3977 3.27185 11.3902 3.36144V8.55994H12.2082V4.51565C12.2213 4.365 12.2904 4.22473 12.4018 4.12253C12.5133 4.02033 12.659 3.96364 12.8103 3.96364C12.9615 3.96364 13.1072 4.02033 13.2187 4.12253C13.3302 4.22473 13.3993 4.365 13.4124 4.51565V7.03765C13.3987 9.72324 13.1806 11.6363 12.7444 12.9587V12.9587Z" fill="#F2F2F2"/>
</svg>
