<svg width="17" height="14" viewBox="0 0 17 14" fill="none" xmlns="http://www.w3.org/2000/svg">
<path d="M8.80201 0.771392C8.7113 0.700669 8.59957 0.662262 8.48455 0.662262C8.36952 0.662262 8.25779 0.700669 8.16708 0.771392L0.820908 6.49957L1.45635 7.3032L2.35456 6.60283V12.9312C2.3551 13.2022 2.46299 13.4619 2.65462 13.6535C2.84624 13.8452 3.10599 13.9531 3.37699 13.9536H13.6013C13.8723 13.9531 14.1321 13.8452 14.3237 13.6535C14.5153 13.4619 14.6232 13.2022 14.6237 12.9312V6.60743L15.5219 7.3078L16.1574 6.50417L8.80201 0.771392ZM9.51158 12.9312H7.46672V8.84145H9.51158V12.9312ZM10.534 12.9312V8.84145C10.5337 8.57037 10.4259 8.31046 10.2343 8.11878C10.0426 7.92709 9.78266 7.81929 9.51158 7.81902H7.46672C7.19563 7.81929 6.93573 7.92709 6.74405 8.11878C6.55236 8.31046 6.44455 8.57037 6.44428 8.84145V12.9312H3.37699V5.80585L8.48915 1.82347L13.6013 5.81096V12.9312H10.534Z" fill="#F2F2F2"/>
</svg>
