<svg width="28" height="27" viewBox="0 0 28 27" fill="none" xmlns="http://www.w3.org/2000/svg">
<path d="M22.4324 10.5839L22.2611 10.6484L22.324 10.8203C22.6807 11.7944 22.8617 12.8208 22.8617 13.8709C22.8617 18.7082 18.9793 22.6395 14.2126 22.6395C11.7536 22.6395 9.43344 21.5771 7.80392 19.7532H10.1972H10.382V19.5685V18.7546V18.5698H10.1972H6.18188H5.99714V18.7546V22.8243V23.009H6.18188H6.98496H7.1697V22.8243V20.807C9.00394 22.7183 11.5362 23.8229 14.2126 23.8229C19.6309 23.8229 24.0342 19.356 24.0342 13.8709C24.0342 12.6807 23.8289 11.5164 23.4239 10.41L23.3598 10.235L23.1853 10.3006L22.4324 10.5839Z" fill="#805AD5" stroke="#805AD5" stroke-width="0.369491"/>
<path d="M18.2924 8.77339V8.95813H18.4772H22.7435H22.9282V8.77339V4.70369V4.51895H22.7435H21.8902H21.7055V4.70369V6.74002C19.756 4.81549 17.0599 3.70501 14.2108 3.70501C8.47151 3.70501 3.78693 8.16145 3.78693 13.657C3.78693 14.8487 4.00534 16.0142 4.43604 17.1214L4.50099 17.2884L4.66988 17.2286L5.46982 16.9453L5.6494 16.8817L5.58032 16.7042C5.20171 15.731 5.00969 14.7058 5.00969 13.657C5.00969 8.83023 9.1291 4.88844 14.2108 4.88844C16.8301 4.88844 19.2966 5.95201 21.0286 7.7747H18.4772H18.2924V7.95945V8.77339Z" fill="#805AD5" stroke="#805AD5" stroke-width="0.369491"/>
</svg>
